<svg width="119" height="118" viewBox="0 0 119 118" fill="none" xmlns="http://www.w3.org/2000/svg">
<path d="M14.875 44.25H104.125M34.7083 14.75V24.5833M84.2917 14.75V24.5833M29.75 59H49.5833V78.6667H29.75V59ZM30.7417 103.25H88.2583C93.8122 103.25 96.5893 103.25 98.7105 102.178C100.576 101.236 102.094 99.7311 103.044 97.881C104.125 95.7777 104.125 93.0238 104.125 87.5167V40.3167C104.125 34.8095 104.125 32.0559 103.044 29.9524C102.094 28.1021 100.576 26.5978 98.7105 25.6551C96.5893 24.5833 93.8122 24.5833 88.2583 24.5833H30.7417C25.1878 24.5833 22.4109 24.5833 20.2896 25.6551C18.4236 26.5978 16.9066 28.1021 15.9559 29.9524C14.875 32.0559 14.875 34.8095 14.875 40.3167V87.5167C14.875 93.0238 14.875 95.7777 15.9559 97.881C16.9066 99.7311 18.4236 101.236 20.2896 102.178C22.4109 103.25 25.1878 103.25 30.7417 103.25Z" stroke="white" stroke-width="2.596" stroke-linecap="round" stroke-linejoin="round"/>
</svg>
