<svg width="141" height="141" viewBox="0 0 141 141" fill="none" xmlns="http://www.w3.org/2000/svg">
<path d="M121.988 70.5H59.0767M17.625 47.0002H32.3125M23.5 70.5H32.3125M26.4375 94H32.3125M58.524 73.3764L53.2864 90.7605C51.3036 97.3417 50.3121 100.632 51.1556 102.597C51.8879 104.303 53.3835 105.563 55.1892 105.994C57.269 106.491 60.3427 104.954 66.4903 101.88L112.435 78.9077C117.847 76.2017 120.553 74.8487 121.422 73.0174C122.177 71.4241 122.177 69.5759 121.422 67.9826C120.553 66.1513 117.847 64.7983 112.435 62.0923L66.4274 39.0889C60.2969 36.0236 57.2317 34.491 55.1539 34.9858C53.3497 35.4154 51.8543 36.6716 51.12 38.3746C50.2742 40.3359 51.2551 43.6196 53.2169 50.187L58.5303 67.9743C58.8305 68.979 58.9803 69.4813 59.0396 69.993C59.0925 70.4471 59.0919 70.9054 59.0379 71.3595C58.9774 71.8712 58.8264 72.373 58.524 73.3764Z" stroke="white" stroke-width="1.833" stroke-linecap="round" stroke-linejoin="round"/>
</svg>
